<svg width="159" height="27" viewBox="0 0 159 27" fill="none" xmlns="http://www.w3.org/2000/svg">
<g clip-path="url(#clip0)">
<path d="M29.9493 11.5976C33.1719 11.5976 36.3945 11.5961 39.6171 11.5985C40.7386 11.5993 41.0334 11.931 41.0734 13.0667C41.2299 17.5027 38.8959 20.3973 35.3319 22.5062C31.3508 24.8619 26.9992 25.9066 22.4217 26.0287C19.1985 26.1146 15.9774 26.0621 12.8114 25.3057C9.64645 24.5496 6.69142 23.3453 4.07831 21.3353C-1.84038 16.7825 -0.815701 9.75376 3.94558 5.96591C6.92032 3.59926 10.3225 2.1802 14.0101 1.54303C20.4806 0.425148 26.8806 0.656936 33.1081 3.00103C35.0327 3.72549 36.8108 4.70707 38.3601 6.07411C38.5709 6.26018 38.7977 6.72048 38.7091 6.88941C38.5844 7.1275 38.174 7.33875 37.8828 7.34254C35.2846 7.37641 32.6851 7.3792 30.0867 7.34342C29.7062 7.33813 29.2793 7.15471 28.958 6.93047C23.9943 3.46473 16.4295 3.6916 11.9825 7.46069C8.8674 10.1011 8.10157 14.0351 10.0913 17.3301C11.2956 19.3248 13.0699 20.6625 15.2012 21.4714C19.6031 23.1421 23.8824 22.8702 27.9394 20.3825C29.4786 19.4387 30.6741 18.1366 31.4233 16.4549C31.7641 15.6901 31.6323 15.4784 30.785 15.4772C27.292 15.4725 23.7992 15.4755 20.3062 15.4747C19.1592 15.4745 18.8715 15.1851 18.867 14.0299C18.8654 13.6309 18.8609 13.232 18.8688 12.8331C18.8856 11.9816 19.235 11.6233 20.0945 11.601C20.7178 11.5849 21.3418 11.5974 21.9657 11.5972C24.6268 11.5975 27.288 11.5975 29.9493 11.5976Z" fill="#898989"/>
<path d="M97.4643 26.1607C93.4474 26.1139 89.543 25.5791 85.8042 24.0525C83.7281 23.2048 81.8227 22.0837 80.1478 20.564C75.4636 16.3137 76.3724 10.141 80.1519 6.64273C82.7607 4.22823 85.8652 2.73722 89.2585 1.93654C95.9992 0.346018 102.686 0.458888 109.225 3.00579C111.584 3.92451 113.683 5.24167 115.388 7.15305C119.354 11.6004 118.809 17.6335 114.094 21.2693C110.88 23.7478 107.184 25.0729 103.23 25.6606C101.325 25.9439 99.3871 26.0011 97.4643 26.1607ZM85.9629 13.4729C85.9769 13.7665 85.9866 14.0602 86.0068 14.3531C86.0153 14.478 86.0431 14.6018 86.0666 14.7251C86.5583 17.311 88.096 19.1454 90.2421 20.4889C93.1119 22.2855 96.2626 22.8106 99.5786 22.3539C101.97 22.0246 104.149 21.1448 106.019 19.5705C109.937 16.2728 110.054 11.1629 106.297 7.68805C101.643 3.38334 93.0761 3.45803 88.5133 7.85812C86.9332 9.38174 85.9868 11.2178 85.9629 13.4729Z" fill="#898989"/>
<path d="M123.737 25.3365C122.053 25.3362 120.368 25.3575 118.685 25.3207C118.281 25.3119 117.882 25.1094 117.48 24.996C117.743 24.6731 117.949 24.269 118.275 24.0397C122.642 20.9735 127.026 17.9317 131.406 14.8838C132.559 14.0815 132.559 13.0159 131.398 12.2311C127.029 9.2794 122.658 6.33153 118.288 3.38176C118.133 3.27696 117.921 3.20087 117.84 3.05285C117.671 2.74484 117.464 2.38734 117.492 2.07065C117.507 1.9123 118.005 1.68517 118.286 1.68265C121.3 1.65557 124.315 1.66602 127.329 1.66854C128.48 1.66955 129.43 2.05855 130.289 2.89248C132.535 5.07546 134.853 7.18411 137.143 9.32185C137.979 10.1021 138.395 10.1093 139.217 9.34339C141.615 7.10853 144.021 4.8797 146.403 2.62744C146.997 2.06585 147.671 1.73669 148.464 1.72032C150.396 1.68038 152.33 1.6766 154.263 1.66564C155.51 1.65859 156.759 1.63642 158.004 1.68391C158.327 1.69626 158.794 1.86027 158.926 2.1034C159.153 2.52276 158.809 2.89009 158.451 3.1428C157.957 3.49135 157.452 3.82241 156.952 4.16053C152.979 6.84196 149.008 9.52619 145.032 12.2012C144.538 12.5333 144.164 12.9248 144.144 13.5543C144.127 14.106 144.392 14.4797 144.846 14.7941C149.234 17.8296 153.613 20.8777 157.986 23.9352C158.371 24.2051 159.042 24.4249 158.838 24.9915C158.751 25.2309 158.008 25.3188 157.562 25.3223C154.215 25.3487 150.868 25.3282 147.522 25.3422C146.633 25.346 145.907 25.0333 145.286 24.4101C143.239 22.3509 141.189 20.2955 139.138 18.2391C138.421 17.5209 137.961 17.5245 137.238 18.2502C135.235 20.2634 133.222 22.2698 131.229 24.294C130.529 25.0034 129.733 25.3672 128.726 25.3461C127.064 25.3114 125.4 25.3367 123.737 25.3365Z" fill="#898989"/>
<path d="M60.8648 25.3283C56.2701 25.3283 51.6753 25.3295 47.0806 25.3278C45.276 25.3271 44.6991 24.7429 44.6986 22.9116C44.6969 16.6341 44.6967 10.3567 44.6987 4.0794C44.6993 2.27359 45.294 1.66792 47.1028 1.66691C56.3755 1.66225 65.6482 1.66363 74.921 1.66603C76.0833 1.66628 76.3892 1.98763 76.3913 3.16786C76.395 5.29894 76.3348 5.35991 74.2296 5.36004C67.9923 5.36004 61.7551 5.35978 55.5179 5.36029C54.2529 5.36042 54.0204 5.59221 54.0179 6.85419C54.0158 7.92495 54.0178 8.99559 54.0172 10.0663C54.0166 11.4298 54.2685 11.6901 55.6044 11.6904C60.719 11.6914 65.8335 11.6908 70.948 11.691C71.1559 11.691 71.3648 11.682 71.5714 11.6988C72.1902 11.7493 72.5229 12.0783 72.548 12.7C72.57 13.245 72.5693 13.7921 72.5488 14.3372C72.5245 14.9821 72.171 15.32 71.5238 15.3559C71.3581 15.365 71.1913 15.3581 71.025 15.3581C65.9313 15.3581 60.8376 15.3569 55.7438 15.3611C55.434 15.3613 55.1185 15.3733 54.816 15.4333C54.3316 15.5298 54.0387 15.8512 54.0341 16.3559C54.0202 17.8041 54.0101 19.2531 54.0391 20.7011C54.0528 21.3856 54.4273 21.6553 55.2322 21.6557C59.432 21.6579 63.6317 21.6567 67.8314 21.6567C70.2431 21.6567 72.6549 21.6542 75.0665 21.658C76.0194 21.6594 76.3748 22.0215 76.3901 22.9892C76.3955 23.325 76.3932 23.661 76.3906 23.997C76.3833 24.992 76.0633 25.325 75.0857 25.3267C72.6116 25.3311 70.1375 25.3283 67.6633 25.3283C65.3973 25.3284 63.1311 25.3283 60.8648 25.3283Z" fill="#898989"/>
</g>
<defs>
<clipPath id="clip0">
<rect width="159" height="26" fill="white" transform="translate(0 0.5)"/>
</clipPath>
</defs>
</svg>
