<svg width="83" height="33" viewBox="0 0 83 33" fill="none" xmlns="http://www.w3.org/2000/svg">
<path d="M15.5828 0.40918C6.29392 0.40918 0 6.79944 0 16.4509C0 26.3668 7.2922 32.184 15.2356 32.3164C18.057 32.3604 20.9652 31.6553 23.613 30.2009C24.3192 31.4226 25.6929 32.0774 27.0698 31.8486L27.1001 31.8436C29.4371 31.4553 30.6644 28.8084 29.4702 26.7322L28.7783 25.5294C30.2975 23.1055 31.1223 20.1088 31.1223 16.4509C31.1223 5.78577 23.3525 0.40918 15.5828 0.40918ZM15.5828 24.8243C11.6762 24.8243 7.9433 21.9597 7.9433 16.4509C7.9433 10.9421 11.6762 8.07748 15.5394 8.07748C19.3592 8.07748 23.1788 10.8099 23.1788 16.4509C23.1788 22.0479 19.3592 24.8243 15.5828 24.8243Z" fill="#00BAE2"/>
<path d="M53.6644 27.4134C53.1547 27.1049 53.1448 26.4976 53.1594 25.5575L53.3342 14.3207C53.3664 12.2521 51.7409 10.5488 49.7035 10.5161C47.6661 10.4835 45.9885 12.1339 45.9563 14.2024L45.8295 22.3546C45.7932 24.6901 44.1646 26.1185 42.4285 26.0907C40.9531 26.067 39.5812 24.9431 39.7513 22.3894L39.8801 14.105C39.9123 12.0365 38.2868 10.3331 36.2494 10.3004L36.1624 10.2991C34.125 10.2664 32.4474 11.9168 32.4152 13.9853L32.2863 22.2697C32.2034 27.6017 33.6138 31.8114 39.8636 31.9116C42.2505 31.9499 44.7871 30.7565 45.907 28.5265C45.851 32.1256 49.412 32.4954 52.3602 32.1754C53.7521 32.0243 54.8137 30.8418 54.8358 29.4207C54.8489 28.5809 54.3749 27.8434 53.6644 27.4134Z" fill="#00BAE2"/>
<path d="M59.7008 10.9421C57.676 10.9421 56.0334 12.6064 56.0291 14.6622L56.0011 28.14C55.9968 30.2019 57.6419 31.8757 59.6728 31.8757H59.7008C61.7286 31.8757 63.3725 30.2067 63.3725 28.1478V14.67C63.3724 12.6111 61.7286 10.9421 59.7008 10.9421Z" fill="#00BAE2"/>
<path d="M79.3284 10.9421C77.3036 10.9421 75.661 12.6064 75.6568 14.6622L75.6287 28.14C75.6244 30.2019 77.2696 31.8757 79.3004 31.8757H79.3284C81.3562 31.8757 83.0001 30.2067 83.0001 28.1478V14.67C83.0001 12.6111 81.3562 10.9421 79.3284 10.9421Z" fill="#00BAE2"/>
<path d="M15.5611 19.2471C17.2456 19.2471 18.611 17.8607 18.611 16.1505C18.611 14.4403 17.2456 13.054 15.5611 13.054C13.8767 13.054 12.5112 14.4403 12.5112 16.1505C12.5112 17.8607 13.8767 19.2471 15.5611 19.2471Z" fill="#00BAE2"/>
<path d="M77.6034 7.23931C77.6034 5.58927 76.286 4.25167 74.6608 4.25167H73.3563V4.25156C73.3563 2.19273 71.7125 0.523682 69.6847 0.523682C67.6599 0.523682 66.0173 2.18792 66.013 4.24371V4.25427C64.4343 4.30797 63.1705 5.62341 63.1705 7.23936C63.1705 8.85294 64.4306 10.1669 66.006 10.2243L65.985 28.1401C65.9807 30.202 67.6259 31.8758 69.6567 31.8758H69.6847C71.7125 31.8758 73.3564 30.2068 73.3564 28.1479V10.2271H74.6609C76.286 10.2269 77.6034 8.88935 77.6034 7.23931Z" fill="#00BAE2"/>
</svg>
