<svg width="148" height="33" viewBox="0 0 148 33" fill="none" xmlns="http://www.w3.org/2000/svg">
<g clip-path="url(#clip0)">
<path d="M29.3379 0.599487C29.5184 0.662144 29.6977 0.728663 29.8795 0.786932C31.0987 1.177 31.867 2.33011 31.8749 3.53946C31.8851 5.0886 31.8864 6.63801 31.8745 8.18715C31.8649 9.46582 31.5198 10.6673 30.8868 11.7703C30.2679 12.8489 29.4439 13.7526 28.3651 14.4082C27.4566 14.9604 26.5072 15.3976 25.433 15.5033C25.0577 15.5402 24.6813 15.5854 24.3052 15.5866C21.9723 15.5943 19.6394 15.5905 17.3065 15.5905C17.1459 15.5905 16.9853 15.5905 16.7845 15.5905C16.7739 15.449 16.7565 15.3241 16.7564 15.1991C16.755 11.3698 16.7445 7.54047 16.7618 3.71129C16.7671 2.56915 17.2548 1.63991 18.2445 1.02703C18.5065 0.864859 18.8345 0.809485 19.1304 0.700055C19.1897 0.678116 19.2404 0.633624 19.295 0.599487C22.6427 0.599487 25.9902 0.599487 29.3379 0.599487Z" fill="#898989"/>
<path d="M0 24.3811C0.0636048 24.0535 0.125888 23.7257 0.191078 23.3985C0.455804 22.0704 1.04428 20.9056 1.9343 19.8807C2.60648 19.1066 3.39916 18.493 4.31544 18.0468C5.31337 17.5609 6.37264 17.2897 7.49083 17.2887C9.85399 17.2865 12.2171 17.288 14.5803 17.288C14.7414 17.288 14.9025 17.288 15.1076 17.288C15.118 17.4252 15.1358 17.5497 15.1359 17.6743C15.1374 21.5928 15.1531 25.5114 15.127 29.4297C15.1194 30.5485 14.4204 31.6561 13.1798 32.0883C13.0394 32.1373 12.9088 32.2147 12.7738 32.2789C9.3381 32.2789 5.90238 32.2789 2.46667 32.2789C2.42684 32.246 2.3917 32.1936 2.34659 32.1831C1.24373 31.9265 0.5291 31.257 0.187555 30.1848C0.129941 30.0039 0.0628119 29.8258 0 29.6464C0 27.8913 0 26.1362 0 24.3811Z" fill="#898989"/>
<path d="M23.5211 32.279C23.3104 32.2171 23.1022 32.1439 22.8885 32.095C20.2667 31.4956 18.4017 29.9984 17.3566 27.5077C17.0695 26.8234 16.861 26.1206 16.8471 25.3832C16.8015 22.9624 16.782 20.5413 16.7535 18.1203C16.7504 17.8599 16.753 17.5997 16.753 17.2879C16.9601 17.2879 17.131 17.2879 17.302 17.2879C21.1758 17.2879 25.0496 17.3 28.9234 17.2815C30.2889 17.275 31.4729 18.2208 31.7813 19.5398C31.8432 19.804 31.8706 20.0822 31.8711 20.3541C31.8773 23.3212 31.8691 26.2885 31.8781 29.2557C31.8815 30.3606 31.2275 31.7167 29.8309 32.1023C29.7169 32.1338 29.6178 32.2188 29.5116 32.279C27.5148 32.279 25.5179 32.279 23.5211 32.279Z" fill="#898989"/>
<path d="M8.19286 0.599487C8.44781 0.662495 8.7002 0.738931 8.95806 0.78623C10.3902 1.04906 11.6144 1.70063 12.6876 2.67753C13.945 3.82212 14.6575 5.25481 15.0207 6.88188C15.0924 7.20367 15.1311 7.53969 15.1323 7.8693C15.1413 10.3532 15.1372 12.8372 15.1363 15.321C15.1363 15.392 15.1267 15.4631 15.1177 15.5906C14.9365 15.5906 14.7663 15.5906 14.596 15.5906C10.6651 15.5906 6.73409 15.5877 2.80302 15.5924C1.52651 15.5938 0.332031 14.5421 0.100164 13.2692C0.0868619 13.196 0.0342691 13.1301 0 13.0607C0 9.78455 0 6.5083 0 3.23214C0.0342691 3.16361 0.0846596 3.09849 0.100341 3.02601C0.328155 1.97206 0.925969 1.22948 1.9433 0.835988C2.14715 0.757183 2.351 0.678292 2.55477 0.599487C4.4341 0.599487 6.31352 0.599487 8.19286 0.599487Z" fill="#898989"/>
<path d="M148 26.5751C147.751 26.7651 147.481 26.8487 147.156 26.8394C146.364 26.8169 145.571 26.8385 144.778 26.8275C144.583 26.8249 144.388 26.7659 144.154 26.726C144.113 26.4239 144.048 26.1577 144.046 25.8915C144.039 22.4992 144.046 19.1068 144.038 15.7145C144.037 14.8062 143.703 13.989 143.151 13.2884C142.664 12.6692 141.958 12.3279 141.192 12.1895C139.682 11.917 138.218 12.0934 136.851 12.8151C136.208 13.1543 135.618 13.5863 135.155 14.1515C135.024 14.3113 134.964 14.5728 134.963 14.7879C134.952 18.3703 134.955 21.9527 134.955 25.5351C134.955 25.8566 134.955 26.1779 134.955 26.5476C134.865 26.6226 134.755 26.7145 134.612 26.8321C133.638 26.8321 132.626 26.8379 131.614 26.8264C131.45 26.8246 131.287 26.7456 131.115 26.6998C131.106 26.5282 131.092 26.3999 131.092 26.2715C131.092 20.5982 131.092 14.9247 131.09 9.25128C131.09 9.02838 131.072 8.8067 131.365 8.6799C132.193 8.6799 133.058 8.68253 133.924 8.67833C134.195 8.67701 134.36 8.79802 134.424 9.05673C134.515 9.41714 134.601 9.77877 134.693 10.1387C134.719 10.2409 134.763 10.3386 134.797 10.4366C135.387 10.0446 135.925 9.66312 136.486 9.31998C137.218 8.87244 138.029 8.61365 138.876 8.5137C139.511 8.43884 140.158 8.38987 140.795 8.42673C142.865 8.54634 144.74 9.15396 146.161 10.7602C146.989 11.6967 147.462 12.8153 147.723 14.0228C147.82 14.4707 147.844 14.9338 147.909 15.3889C147.92 15.464 147.969 15.5337 148 15.6059C148 19.2622 148 22.9186 148 26.5751Z" fill="#898989"/>
<path d="M125.535 19.5636C120.645 19.5636 115.835 19.5636 111.003 19.5636C111.268 20.7347 111.957 21.5886 112.858 22.2783C113.927 23.0958 115.158 23.4241 116.502 23.4311C117.569 23.4367 118.617 23.3622 119.644 23.0702C120.627 22.7908 121.503 22.3069 122.306 21.6842C122.432 21.5875 122.559 21.4949 122.737 21.362C122.917 21.5486 123.111 21.7126 123.259 21.9107C123.758 22.5783 124.24 23.258 124.782 24.0065C124.602 24.1907 124.434 24.4166 124.217 24.5794C122.698 25.7169 121.019 26.4987 119.139 26.839C118.15 27.018 117.154 27.1437 116.152 27.0874C114.005 26.9666 112.003 26.3677 110.299 25.0193C108.585 23.6629 107.551 21.8802 107.121 19.7343C106.927 18.7675 106.888 17.793 106.971 16.8301C107.134 14.9318 107.791 13.2126 109.036 11.7247C110.49 9.98763 112.352 9.00117 114.555 8.58924C115.605 8.39285 116.653 8.37618 117.718 8.49175C119.155 8.64742 120.472 9.10428 121.674 9.87986C123.676 11.1721 124.878 13.0286 125.441 15.3171C125.753 16.5858 125.716 17.878 125.698 19.168C125.697 19.2941 125.597 19.4188 125.535 19.5636ZM121.736 15.9366C121.612 15.0148 121.284 14.2668 120.648 13.6761C119.104 12.2425 117.276 11.7753 115.216 12.1726C113.64 12.4769 112.367 13.2506 111.504 14.6225C111.256 15.0164 111.043 15.438 110.987 15.9366C114.595 15.9366 118.164 15.9366 121.736 15.9366Z" fill="#898989"/>
<path d="M61.4607 14.6436C61.7193 13.2262 60.796 12.5504 59.7695 12.2832C59.0918 12.1068 58.3701 12.0018 57.6718 12.0182C55.7906 12.0624 53.9703 12.3976 52.3657 13.4764C52.2588 13.5482 52.1292 13.5855 52.019 13.6533C51.7136 13.8412 51.4425 13.7614 51.2508 13.5042C50.7368 12.8142 50.2469 12.1064 49.7192 11.366C49.8651 11.1751 49.961 10.9625 50.1258 10.8482C51.2048 10.0992 52.3389 9.44057 53.5972 9.03856C54.4886 8.75379 55.4 8.53494 56.3449 8.50255C57.1027 8.47658 57.8642 8.38145 58.6171 8.42831C60.6212 8.55302 62.49 9.06752 63.9481 10.5618C64.6612 11.2928 65.0966 12.1851 65.2594 13.1781C65.3853 13.9451 65.4314 14.7314 65.4413 15.51C65.4658 17.4398 65.4604 19.3701 65.4452 21.3002C65.4359 22.4806 65.6415 23.6176 66.0166 24.7324C66.1526 25.1365 66.2554 25.5519 66.3841 25.9995C66.1961 26.118 66.0549 26.2474 65.8887 26.3048C65.1023 26.5768 64.3095 26.8303 63.5177 27.0864C63.4647 27.1036 63.4013 27.0886 63.2814 27.0886C62.7323 26.4165 62.6428 25.4818 62.1577 24.702C62.0546 24.7458 61.9503 24.7626 61.8849 24.822C60.6002 25.9882 59.1024 26.7056 57.3765 26.9184C56.6434 27.0088 55.8978 27.1211 55.1665 27.0776C53.6665 26.9887 52.2235 26.6224 51.0313 25.6492C49.989 24.7984 49.3643 23.6918 49.1547 22.3432C49.0138 21.4367 49.0881 20.5662 49.3361 19.6936C49.6385 18.6299 50.2493 17.783 51.1105 17.1007C52.3054 16.1539 53.7155 15.7211 55.1805 15.45C55.9461 15.3085 56.7306 15.2715 57.5041 15.1696C58.29 15.0663 59.0721 14.9351 59.8576 14.8282C60.3863 14.7563 60.918 14.7053 61.4607 14.6436ZM61.4781 17.8944C61.3461 17.922 61.2371 17.9499 61.1264 17.9669C60.3294 18.0894 59.5309 18.2024 58.7351 18.3324C57.7279 18.4968 56.7168 18.6463 55.7191 18.8574C55.1494 18.9779 54.5714 19.1448 54.0535 19.4032C53.2552 19.8014 52.9008 20.5366 52.9521 21.4046C53.0096 22.3746 53.7747 23.2214 54.7505 23.3122C55.6979 23.4002 56.6768 23.4411 57.6122 23.3031C59.1984 23.0692 60.4987 22.2501 61.478 20.9741C61.4781 19.9526 61.4781 18.9326 61.4781 17.8944Z" fill="#898989"/>
<path d="M75.6396 3.4142C75.6806 3.67509 75.749 3.90904 75.7494 4.14318C75.7562 7.9887 75.7543 11.8343 75.7543 15.6798C75.7543 15.8396 75.7543 15.9995 75.7543 16.2243C75.8802 16.1224 75.9697 16.0613 76.0457 15.9868C78.1759 13.8963 80.2914 11.7905 82.4465 9.72571C82.8295 9.35881 83.1609 8.87098 83.7459 8.74874C83.8432 8.72838 83.9392 8.68275 84.0359 8.68248C85.4597 8.67906 86.8835 8.68109 88.3073 8.68354C88.3489 8.68362 88.3905 8.70214 88.4662 8.72022C88.4906 8.81623 88.5179 8.92267 88.5487 9.04307C87.9558 9.57776 87.3749 10.1015 86.7945 10.6255C86.7402 10.6744 86.688 10.7258 86.6351 10.7763C85.8758 11.5029 85.1207 12.2339 84.3565 12.9553C83.4032 13.8553 82.445 14.7501 81.4837 15.6414C81.1326 15.9669 80.7662 16.2762 80.3865 16.6108C80.6302 16.9054 80.8406 17.1762 81.0679 17.4321C81.8001 18.2562 82.5458 19.0685 83.2724 19.8976C84.1784 20.9313 85.0663 21.9806 85.9706 23.0158C86.4862 23.6059 87.0205 24.1797 87.5431 24.7638C87.9877 25.2605 88.4341 25.756 88.8642 26.265C88.9468 26.3628 88.957 26.5213 89.0206 26.7121C88.8106 26.7595 88.6504 26.826 88.4897 26.8272C87.2567 26.836 86.0236 26.8434 84.7909 26.826C84.3301 26.8195 83.9554 26.6208 83.6532 26.2394C82.8647 25.244 82.0393 24.2777 81.2413 23.2899C80.5988 22.4946 79.9798 21.6804 79.3404 20.8827C78.9159 20.3531 78.4733 19.8381 78.0403 19.3152C77.9401 19.194 77.8467 19.067 77.715 18.8977C77.0601 19.3997 76.4138 19.8954 75.7541 20.4012C75.7541 22.2689 75.7543 24.1397 75.754 26.0108C75.7539 26.6909 75.6155 26.8315 74.946 26.832C74.1388 26.8324 73.3312 26.8404 72.5242 26.8262C72.3184 26.8226 72.1138 26.7473 71.9062 26.7044C71.9062 18.9808 71.9062 11.3208 71.9062 3.57882C72.0221 3.53257 72.1698 3.42412 72.3188 3.422C73.3896 3.40735 74.4605 3.4142 75.6396 3.4142Z" fill="#898989"/>
<path d="M94.4436 26.7039C94.4436 21.8584 94.4436 17.093 94.4436 12.2838C93.747 12.1782 93.0676 12.0752 92.3166 11.9614C92.262 11.9068 92.1605 11.8055 92.0659 11.7111C92.0659 10.8642 92.0617 10.0455 92.0676 9.22697C92.0707 8.82172 92.2105 8.68535 92.6201 8.68096C93.206 8.67472 93.792 8.67937 94.4444 8.67937C94.4444 8.34301 94.4441 8.02806 94.4444 7.71311C94.4457 6.15019 95.0068 4.81157 96.1217 3.72217C96.9787 2.88481 98.0381 2.40769 99.2112 2.19058C99.6786 2.10406 100.163 1.98788 100.627 2.02753C101.528 2.10441 102.432 2.1697 103.317 2.42709C104.215 2.68833 105.033 3.09148 105.822 3.56737C105.968 3.65522 106.07 3.81581 106.203 3.95412C105.755 4.77111 105.33 5.53731 104.915 6.30832C104.778 6.56289 104.542 6.54447 104.365 6.45478C103.585 6.06006 102.757 5.79127 101.898 5.72835C100.987 5.66174 100.049 5.49229 99.189 6.06244C98.6244 6.43688 98.4269 6.98316 98.3193 7.57893C98.2584 7.91661 98.3083 8.27421 98.3083 8.6792C98.4948 8.6792 98.6505 8.6792 98.8062 8.6792C100.245 8.6792 101.684 8.67446 103.123 8.68447C103.329 8.68588 103.535 8.75827 103.768 8.80303C103.768 9.88189 103.774 10.9029 103.761 11.9238C103.76 12.0351 103.653 12.1451 103.592 12.2631C101.836 12.2631 100.105 12.2631 98.3381 12.2631C98.3381 17.0178 98.3381 21.7491 98.3381 26.4434C98.1622 26.7344 97.9438 26.8351 97.6579 26.8336C96.777 26.8289 95.8959 26.8384 95.0151 26.8264C94.8368 26.8241 94.6591 26.7522 94.4436 26.7039Z" fill="#898989"/>
</g>
<defs>
<clipPath id="clip0">
<rect width="148" height="32" fill="white" transform="translate(0 0.5)"/>
</clipPath>
</defs>
</svg>
