<svg width="195" height="41" viewBox="0 0 195 41" fill="none" xmlns="http://www.w3.org/2000/svg">
<g clip-path="url(#clip0)">
<path d="M39.3613 31.7345C39.3613 22.3855 39.3613 13.0721 39.3613 3.71729C45.4262 3.71729 51.4746 3.71729 57.5644 3.71729C57.5644 5.28319 57.5644 6.86386 57.5644 8.50081C53.284 8.50081 48.9985 8.50081 44.6829 8.50081C44.6829 10.4402 44.6829 12.3237 44.6829 14.2586C46.2067 14.2586 47.7068 14.2704 49.2064 14.2549C50.3548 14.243 51.4987 14.274 52.6278 14.5024C56.143 15.2135 58.5673 17.7043 59.1607 21.1316C59.5414 23.331 59.3515 25.4473 58.3264 27.4437C57.1725 29.6913 55.2777 30.9422 52.9082 31.521C51.9624 31.752 50.996 31.7949 50.0264 31.7942C46.6992 31.7916 43.372 31.7942 40.0448 31.791C39.8313 31.7907 39.6126 31.8333 39.3613 31.7345ZM44.6756 26.9662C46.5128 26.9662 48.3083 26.9539 50.1036 26.9692C52.4029 26.9887 53.941 25.485 54.0064 23.2436C54.0767 20.8363 52.648 19.2766 50.6097 19.1493C48.9306 19.0443 47.2501 19.1273 45.5705 19.106C45.2806 19.1023 44.982 19.0446 44.6754 19.1627C44.6756 21.7392 44.6756 24.3107 44.6756 26.9662Z" fill="#898989"/>
<path d="M4.13493 31.7928C3.04621 31.7927 1.95738 31.8017 0.86879 31.7893C0.188109 31.7814 0.00828159 31.5788 0.00733075 30.8767C0.00531023 29.3447 0.0200482 27.8126 0.000199473 26.2808C-0.00788266 25.656 0.22947 25.2373 0.742329 24.8908C5.6956 21.5448 10.6383 18.1826 15.5839 14.8247C18.5483 12.8119 21.5121 10.7982 24.4768 8.78554C25.1852 8.30468 25.4467 8.30444 26.1338 8.77296C27.1967 9.49781 28.2517 10.2354 29.327 10.9409C29.8208 11.2649 30.0711 11.6787 30.0631 12.2797C30.0457 13.5693 30.0447 14.8591 30.0416 16.1488C30.0407 16.6333 29.8312 16.9693 29.4325 17.2391C22.5203 21.9178 15.6122 26.6027 8.7081 31.2938C8.21437 31.6293 7.69676 31.8036 7.10427 31.7961C6.11457 31.7841 5.12463 31.793 4.13493 31.7928Z" fill="#898989"/>
<path d="M178.068 39.3524C178.068 29.9707 178.068 20.6388 178.068 11.2707C179.656 11.2707 181.23 11.2707 182.842 11.2707C182.949 11.8591 182.835 12.4792 182.91 13.1668C183.249 12.8759 183.547 12.6266 183.838 12.3711C185.271 11.1144 186.974 10.8566 188.772 11.0371C190.182 11.1787 191.504 11.6041 192.601 12.5723C193.783 13.6169 194.398 14.9817 194.645 16.5233C195.136 19.5867 195.064 22.6653 194.751 25.7361C194.603 27.1954 194.221 28.5996 193.264 29.7776C192.313 30.9481 191.059 31.5798 189.642 31.855C188.155 32.144 186.661 32.1484 185.223 31.5244C184.43 31.1806 183.796 30.6116 183.074 29.9724C183.074 33.1477 183.074 36.2317 183.074 39.3526C181.375 39.3524 179.743 39.3524 178.068 39.3524ZM189.994 21.4886C189.934 20.3768 189.966 19.2284 189.697 18.1064C189.38 16.7778 188.702 15.7966 187.274 15.5963C185.457 15.3416 183.876 15.916 183.345 18.0308C183.172 18.7194 183.12 19.4143 183.081 20.1131C182.99 21.7426 182.987 23.3714 183.364 24.9697C183.61 26.0036 184.102 26.8606 185.153 27.2663C185.665 27.4643 186.191 27.455 186.723 27.4617C188.294 27.4817 189.21 26.5678 189.596 25.2154C189.944 23.9996 189.921 22.7566 189.994 21.4886Z" fill="#898989"/>
<path d="M104.444 11.2593C104.444 16.6249 104.444 21.9431 104.444 27.2953C106.627 27.2953 108.778 27.2953 110.983 27.2953C110.983 21.9813 110.983 16.649 110.983 11.2756C112.69 11.2756 114.343 11.2756 116.049 11.2756C116.049 16.5841 116.049 21.9171 116.049 27.3076C116.979 27.3076 117.86 27.3076 118.767 27.3076C118.767 30.502 118.767 33.6391 118.767 36.8139C117.198 36.8139 115.626 36.8139 114.001 36.8139C114.001 35.1483 114.001 33.4863 114.001 31.795C109.122 31.795 104.296 31.795 99.4414 31.795C99.4414 24.9379 99.4414 18.1111 99.4414 11.2594C101.097 11.2593 102.733 11.2593 104.444 11.2593Z" fill="#898989"/>
<path d="M62.0533 13.6998C63.3908 12.0804 65.2182 11.2474 67.3807 11.0742C69.726 10.8863 72.0373 10.9623 74.2204 11.9677C76.3725 12.9588 77.4699 14.7314 77.6934 17.0898C77.9071 19.3431 77.7657 21.6036 77.7866 23.8606C77.811 26.4791 77.7923 29.0981 77.7923 31.755C76.1686 31.755 74.5743 31.755 72.9419 31.755C72.8216 31.2291 72.9536 30.6671 72.8808 30.1253C72.8087 30.1063 72.7581 30.0956 72.708 30.1491C71.572 31.3674 70.1384 31.8907 68.5283 31.9814C67.0945 32.0621 65.6916 31.9047 64.3694 31.2947C62.3019 30.341 61.3068 28.626 61.1028 26.3898C60.9769 25.009 61.1417 23.6674 61.8869 22.465C62.8289 20.9448 64.2606 20.1766 65.9388 19.831C67.3651 19.5374 68.8147 19.6403 70.2563 19.6281C71.0673 19.6214 71.8783 19.627 72.7835 19.627C72.7582 18.6171 72.902 17.6228 72.4002 16.6926C72.0094 15.9677 71.3582 15.6183 70.6111 15.437C69.6774 15.2103 68.7206 15.2396 67.7777 15.3334C66.9808 15.4127 66.2688 15.7611 65.6834 16.3418C65.4871 16.5364 65.2826 16.7224 65.0007 16.989C64.0113 15.8847 63.037 14.7976 62.0533 13.6998ZM72.7533 23.0787C72.2622 23.0787 71.8292 23.067 71.3972 23.081C70.1928 23.1201 68.9842 22.978 67.7835 23.1777C66.616 23.3717 65.8925 24.1943 65.8453 25.3928C65.8004 26.5263 66.4263 27.3921 67.5401 27.684C68.5305 27.9436 69.5364 27.952 70.5312 27.7184C71.8372 27.4117 72.5676 26.6261 72.717 25.2997C72.7975 24.5854 72.8215 23.8568 72.7533 23.0787Z" fill="#898989"/>
<path d="M152.132 19.0174C152.132 16.4338 152.132 13.8774 152.132 11.2776C153.814 11.2776 155.468 11.2776 157.166 11.2776C157.166 18.0677 157.166 24.8897 157.166 31.7524C155.526 31.7524 153.873 31.7524 152.157 31.7524C152.157 29.0343 152.157 26.3051 152.157 23.5516C149.945 23.5516 147.793 23.5516 145.577 23.5516C145.577 26.2778 145.577 29.007 145.577 31.7583C143.879 31.7583 142.247 31.7583 140.588 31.7583C140.588 24.9158 140.588 18.1083 140.588 11.2675C142.231 11.2675 143.865 11.2675 145.551 11.2675C145.551 13.8403 145.551 16.4117 145.551 19.0174C147.769 19.0174 149.937 19.0174 152.132 19.0174Z" fill="#898989"/>
<path d="M137.679 23.0547C133.437 23.0547 129.247 23.0547 125.06 23.0547C124.874 25.6383 126.398 27.4414 128.602 27.6944C129.392 27.7851 130.179 27.7775 130.964 27.634C132.175 27.4125 133.154 26.775 134.024 25.8553C134.961 26.8945 135.891 27.9261 136.855 28.9953C135.71 30.2248 134.189 31.2471 132.306 31.6864C130.083 32.2053 127.872 32.1744 125.704 31.4748C123.391 30.7287 121.76 29.1568 120.941 26.8318C119.73 23.3934 119.655 19.8958 120.921 16.4654C122.074 13.3427 124.325 11.5014 127.63 11.0893C130.234 10.7645 132.613 11.3016 134.641 13.0601C136.116 14.3399 136.929 16.0291 137.362 17.9285C137.741 19.5927 137.672 21.2825 137.679 23.0547ZM125.029 19.6034C127.592 19.6034 130.157 19.6034 132.722 19.6034C132.703 16.8968 131.28 15.2203 128.929 15.1804C126.211 15.1344 124.912 17.3834 125.029 19.6034Z" fill="#898989"/>
<path d="M88.2389 23.8961C89.5781 19.6835 90.9171 15.4708 92.2593 11.2489C93.9929 11.2489 95.7129 11.2489 97.4923 11.2489C97.0685 12.413 96.6539 13.5468 96.2427 14.682C93.7452 21.5753 91.2573 28.4725 88.7443 35.3599C88.1898 36.8795 87.3309 38.1722 85.7925 38.8551C85.0197 39.1981 84.1996 39.3128 83.3758 39.3663C82.63 39.4149 81.8789 39.3766 81.0987 39.3766C81.0987 37.8719 81.0987 36.3898 81.0987 34.8082C81.558 34.8082 82.0248 34.8061 82.4917 34.8085C83.5702 34.8142 84.272 34.2785 84.6282 33.2582C84.9622 32.3006 85.2855 31.3392 85.6154 30.3745C83.3132 24.0063 81.0164 17.6533 78.707 11.2652C80.4546 11.2652 82.1792 11.2652 83.9419 11.2652C85.3278 15.4718 86.7163 19.6861 88.1048 23.9002C88.1494 23.8988 88.1943 23.8975 88.2389 23.8961Z" fill="#898989"/>
<path d="M22.914 6.7705C22.5986 7.3074 0.650618 22.1536 0.162483 22.1734C-0.0471775 22.0346 0.00880305 21.8174 0.00856535 21.6229C0.00630711 18.4991 0.0118933 15.3751 0.00274147 12.2513C0.0010775 11.6644 0.263628 11.2846 0.729419 10.9701C4.16027 8.65291 7.58282 6.32293 11.0081 3.99731C12.139 3.22937 13.2768 2.47171 14.3985 1.68984C14.8286 1.39005 15.2123 1.37552 15.6482 1.6729C17.9565 3.24764 20.2726 4.81051 22.5855 6.37813C22.7347 6.47919 22.8656 6.59743 22.914 6.7705Z" fill="#898989"/>
<path d="M175.988 11.2524C175.988 12.7494 175.988 14.1925 175.988 15.6952C174.047 15.6952 172.136 15.6952 170.183 15.6952C170.183 21.0706 170.183 26.3864 170.183 31.7476C168.512 31.7476 166.884 31.7476 165.203 31.7476C165.203 26.427 165.203 21.1126 165.203 15.73C163.187 15.73 161.22 15.73 159.232 15.73C159.232 14.1979 159.232 12.7342 159.232 11.2523C164.821 11.2524 170.38 11.2524 175.988 11.2524Z" fill="#898989"/>
<path d="M12.5352 31.5694C18.2769 27.6752 24.0186 23.7812 29.7505 19.8939C30.1671 20.1461 30.0534 20.5002 30.0542 20.7944C30.0629 24.0996 30.0598 27.4048 30.0592 30.7101C30.0592 30.8306 30.048 30.9515 30.0483 31.0722C30.0487 31.5398 29.8255 31.7786 29.3622 31.7804C29.1843 31.7809 29.0062 31.7929 28.8285 31.7931C23.663 31.7938 18.4974 31.7936 13.3318 31.7936C13.0976 31.7936 12.8633 31.7936 12.6291 31.7936C12.5976 31.7186 12.5663 31.6441 12.5352 31.5694Z" fill="#898989"/>
</g>
<defs>
<clipPath id="clip0">
<rect width="195" height="40" fill="white" transform="translate(0 0.5)"/>
</clipPath>
</defs>
</svg>
