<svg width="162" height="63" viewBox="0 0 162 63" fill="none" xmlns="http://www.w3.org/2000/svg">
<path d="M30.4146 0.795654C12.2845 0.795654 0 13.2212 0 31.9879C0 51.2688 14.233 62.5801 29.737 62.8375C35.2438 62.923 40.92 61.5521 46.088 58.7239C47.4664 61.0996 50.1476 62.3727 52.8351 61.9278L52.8941 61.9181C57.4555 61.163 59.851 56.0164 57.5201 51.9794L56.1697 49.6406C59.1349 44.9274 60.7446 39.1004 60.7446 31.9879C60.7446 11.2501 45.5796 0.795654 30.4146 0.795654ZM30.4146 48.2695C22.7898 48.2695 15.5038 42.6994 15.5038 31.9879C15.5038 21.2763 22.7898 15.7062 30.3298 15.7062C37.7853 15.7062 45.2406 21.0192 45.2406 31.9879C45.2406 42.8709 37.7853 48.2695 30.4146 48.2695Z" fill="#AAAAAA"/>
<path d="M104.743 53.3041C103.748 52.7042 103.728 51.5232 103.757 49.6952L104.098 27.8459C104.161 23.8237 100.988 20.5117 97.0117 20.4482C93.0352 20.3847 89.7607 23.5937 89.6979 27.6159L89.4504 43.4674C89.3795 48.0086 86.2008 50.7861 82.8123 50.7319C79.9325 50.686 77.2549 48.5005 77.5868 43.5351L77.8383 27.4265C77.9011 23.4043 74.7285 20.0922 70.7519 20.0288L70.5821 20.0261C66.6055 19.9626 63.331 23.1716 63.2682 27.1938L63.0167 43.3024C62.8549 53.6701 65.6078 61.8556 77.8061 62.0505C82.4649 62.1249 87.4158 59.8043 89.6015 55.4683C89.4923 62.4666 96.4426 63.1857 102.197 62.5635C104.914 62.2697 106.986 59.9703 107.029 57.207C107.055 55.5742 106.129 54.1401 104.743 53.3041Z" fill="#AAAAAA"/>
<path d="M116.524 21.2764C112.572 21.2764 109.366 24.5124 109.358 28.5098L109.303 54.7165C109.295 58.7259 112.506 61.9805 116.47 61.9805H116.524C120.482 61.9805 123.691 58.7352 123.691 54.7318V28.525C123.691 24.5216 120.482 21.2764 116.524 21.2764Z" fill="#AAAAAA"/>
<path d="M154.834 21.2764C150.882 21.2764 147.676 24.5124 147.667 28.5098L147.613 54.7165C147.604 58.7259 150.815 61.9805 154.779 61.9805H154.834C158.792 61.9805 162 58.7352 162 54.7318V28.525C162 24.5216 158.792 21.2764 154.834 21.2764Z" fill="#AAAAAA"/>
<path d="M30.3723 37.4249C33.66 37.4249 36.3252 34.7291 36.3252 31.4037C36.3252 28.0783 33.66 25.3826 30.3723 25.3826C27.0847 25.3826 24.4195 28.0783 24.4195 31.4037C24.4195 34.7291 27.0847 37.4249 30.3723 37.4249Z" fill="#AAAAAA"/>
<path d="M151.467 14.0765C151.467 10.8681 148.895 8.26718 145.723 8.26718H143.177V8.26696C143.177 4.26368 139.969 1.01831 136.011 1.01831C132.059 1.01831 128.853 4.25433 128.844 8.25171V8.27223C125.763 8.37665 123.297 10.9345 123.297 14.0766C123.297 17.2141 125.756 19.7691 128.831 19.8806L128.79 54.7169C128.781 58.7262 131.992 61.9808 135.956 61.9808H136.011C139.969 61.9808 143.177 58.7355 143.177 54.7321V19.886H145.723C148.895 19.8858 151.467 17.2849 151.467 14.0765Z" fill="#AAAAAA"/>
</svg>
