<svg width="125" height="63" viewBox="0 0 125 63" fill="none" xmlns="http://www.w3.org/2000/svg">
<g clip-path="url(#clip0)">
<path d="M71.9925 19.3496H81.8609V40.3583H77.6034V21.952H76.2593V40.3583H71.9925V19.3496ZM88.609 40.3583H84.3515V19.3496H91.0432C94.0319 19.3496 94.2106 21.6303 94.2106 23.135V29.4943C94.2106 30.9707 94.0319 33.2797 91.0432 33.2797H88.609V40.3583ZM88.609 30.8949H89.1636C89.6147 30.8949 89.953 30.4974 89.953 29.8445V23.0025C89.953 22.3495 89.6147 21.952 89.1636 21.952H88.609V30.8949ZM63.0545 40.3583H66.5884C69.5771 40.3583 69.7556 38.0776 69.7556 36.5729V32.3806C69.7556 31.6331 69.7556 29.4659 66.8703 29.5416V29.324C67.2547 29.3713 67.6449 29.331 68.0118 29.206C68.3786 29.081 68.713 28.8746 68.9899 28.602C69.267 28.3295 69.4796 27.9977 69.6121 27.6313C69.7447 27.2648 69.7937 26.8731 69.7556 26.485V23.1065C69.7556 21.6303 69.5771 19.3212 66.5884 19.3212H63.0545C60.0752 19.3212 59.8966 21.6019 59.8966 23.1065V26.078H64.1541V22.6429C64.1489 22.5523 64.1624 22.4617 64.1938 22.3767C64.2252 22.2919 64.2739 22.2144 64.3367 22.1494C64.3994 22.0844 64.475 22.0333 64.5584 21.9993C64.6419 21.9654 64.7314 21.9492 64.8215 21.952C64.911 21.952 64.9999 21.97 65.0825 22.0047C65.1653 22.0396 65.2403 22.0907 65.3033 22.1549C65.3663 22.2192 65.4159 22.2954 65.4494 22.3792C65.4828 22.4629 65.4994 22.5525 65.4982 22.6429V26.8257C65.4982 28.1127 65.0658 28.3871 63.8534 28.3871H62.0301V30.6962H63.7593C65.3477 30.6962 65.4699 31.4249 65.4699 32.0778V36.9705C65.4711 37.0607 65.4546 37.1502 65.4211 37.234C65.3877 37.3179 65.338 37.3941 65.2751 37.4583C65.2121 37.5226 65.1371 37.5737 65.0544 37.6084C64.9717 37.6433 64.8829 37.6612 64.7932 37.6612C64.7033 37.664 64.6137 37.648 64.5302 37.6139C64.4467 37.58 64.3712 37.5288 64.3085 37.4639C64.2456 37.3989 64.1971 37.3214 64.1657 37.2364C64.1342 37.1515 64.1206 37.0609 64.126 36.9705V33.0147H59.8966V36.6202C59.8966 38.0871 60.0752 40.3583 63.0545 40.3583ZM47.4154 40.3583L49.6335 19.3496H56.3346L58.5527 40.3583H54.3797L53.985 34.7749H51.9737L51.579 40.3583H47.4154ZM52.1147 32.4658H53.8158L53.1015 21.952H52.8572L52.1147 32.4658ZM96.2876 36.6109V23.1065C96.2876 21.6303 96.4756 19.3212 99.4549 19.3212H102.989C105.968 19.3212 106.156 21.6019 106.156 23.1065V36.6202C106.156 38.0871 105.968 40.4056 102.989 40.4056H99.4549C96.4661 40.3583 96.2782 38.0871 96.2782 36.6202L96.2876 36.6109ZM100.554 36.961C100.549 37.0514 100.563 37.1421 100.594 37.227C100.626 37.3119 100.674 37.3894 100.737 37.4544C100.8 37.5193 100.875 37.5705 100.959 37.6044C101.042 37.6385 101.132 37.6545 101.222 37.6517C101.311 37.6505 101.398 37.6317 101.48 37.5963C101.562 37.5609 101.636 37.5097 101.698 37.4455C101.76 37.3814 101.808 37.3056 101.841 37.2225C101.874 37.1393 101.89 37.0504 101.889 36.961V22.6429C101.89 22.5534 101.874 22.4645 101.841 22.3814C101.808 22.2982 101.76 22.2224 101.698 22.1583C101.636 22.0941 101.562 22.0429 101.48 22.0075C101.398 21.972 101.311 21.9532 101.222 21.952C101.132 21.9492 101.042 21.9654 100.959 21.9993C100.875 22.0333 100.8 22.0844 100.737 22.1494C100.674 22.2144 100.626 22.2919 100.594 22.3767C100.563 22.4617 100.549 22.5523 100.554 22.6429V36.961ZM43.6654 21.952H47.5282V19.3496H39.3985V40.3583H43.6654V21.952ZM45.1973 57.1085C45.2977 57.11 45.3972 57.0907 45.4898 57.0518C45.5824 57.0129 45.666 56.9554 45.7357 56.8825C45.8052 56.8098 45.8593 56.7235 45.8944 56.6288C45.9295 56.5342 45.945 56.4333 45.9398 56.3326V51.9225C45.9427 51.8249 45.9252 51.7278 45.8886 51.6372C45.8518 51.5468 45.7967 51.4651 45.7268 51.3974C45.6569 51.3297 45.5737 51.2774 45.4825 51.2439C45.3913 51.2105 45.2942 51.1967 45.1973 51.2033C45.101 51.1967 45.0042 51.2104 44.9135 51.2439C44.8228 51.2774 44.7402 51.3298 44.6709 51.3977C44.6017 51.4657 44.5476 51.5475 44.5119 51.638C44.4763 51.7284 44.4601 51.8254 44.4643 51.9225V56.3326C44.4578 56.4329 44.472 56.5336 44.5061 56.6282C44.5401 56.7228 44.5932 56.8092 44.6621 56.8822C44.7309 56.955 44.8141 57.0127 44.9062 57.0518C44.9983 57.0907 45.0975 57.11 45.1973 57.1085ZM23.2237 24.0529C22.6633 19.41 23.0568 14.7008 24.3797 10.2174C25.4763 6.81215 27.0424 3.5788 29.0319 0.612061C31.328 3.95434 33.0324 7.67152 34.0695 11.5991C35.1979 15.8597 35.438 20.3093 34.7744 24.6679C34.0296 29.8558 32.0676 34.79 29.0507 39.0618C27.6627 37.1599 26.4989 35.1021 25.5828 32.9295C24.4413 30.0781 23.6492 27.0973 23.2237 24.0529ZM30.7425 30.3839C30.6788 28.0772 30.1039 25.814 29.0602 23.7595C27.9051 25.8762 27.3005 28.2526 27.3027 30.6678C27.318 33.0953 27.911 35.4837 29.0319 37.6329C30.2155 35.4062 30.8049 32.9086 30.7425 30.3839ZM24.9718 27.0338C24.9449 24.2422 25.2 21.4551 25.7331 18.7156C26.4282 15.6316 27.5314 12.6556 29.0131 9.86726C30.5108 12.659 31.6267 15.6417 32.3308 18.7344C32.8934 21.4373 33.1333 24.1981 33.0451 26.9582C33.4467 25.0566 33.6608 23.1199 33.6842 21.176C33.7305 17.9253 33.3159 14.6846 32.453 11.5517C31.629 8.78102 30.4739 6.12127 29.0131 3.63088C27.5882 6.17324 26.4501 8.86815 25.6203 11.6653C24.9703 14.0516 24.5733 16.5005 24.436 18.971C24.3501 21.6698 24.5295 24.3706 24.9718 27.0338ZM119.417 19.3496L116.598 34.122L113.882 19.3496H108.336V40.3583H112.603V27.1853H112.782L114.944 40.3583H118.355L120.545 27.1758H120.696V40.3583H125V19.3496H119.417ZM39.3985 46.8975H124.925V61.3954H39.3985V46.8975ZM116.203 58.4996H120.216V60.2882H122.294V56.853H121.842V49.8217H119.718V56.872H118.327V49.8217H116.203V58.4996ZM98.2143 51.4494H99.8873V58.4996H101.833V51.4494H103.384V49.8217H98.2143V51.4494ZM79.5394 49.8217L81.5226 56.6732C81.4882 56.7741 81.4191 56.8592 81.3277 56.9131C81.2362 56.9669 81.1286 56.9859 81.0244 56.9665C80.8441 56.973 80.6637 56.9539 80.4887 56.9098V58.3388C80.821 58.5046 81.1897 58.5828 81.5602 58.5659C83.0451 58.5659 83.5527 58.159 84.0319 56.4744L85.9117 49.7744H83.7218L82.8948 53.5597C82.7954 54.1552 82.7265 54.7553 82.688 55.3578C82.6316 54.4114 82.6316 53.8815 82.5752 53.5597L81.7669 49.8217H79.5394ZM61.1748 58.4996H63.2989V54.8089H64.6898V58.4996H66.814V49.8217H64.6898V53.1718H63.2989V49.8217H61.1748V58.4996ZM42.3778 55.9635C42.3778 57.6952 43.3177 58.7078 45.1973 58.7078C47.0771 58.7078 48.0169 57.6952 48.0169 55.9635V52.0645C48.0169 50.7112 47.1617 49.6041 45.1973 49.6041C43.2331 49.6041 42.3215 50.6829 42.3215 52.055L42.3778 55.9635ZM21.3158 40.3583V46.9827C22.45 45.8772 23.9666 45.2591 25.5451 45.2591C27.1237 45.2591 28.6403 45.8772 29.7744 46.9827C30.3303 47.526 30.7723 48.1763 31.0742 48.8948C31.3759 49.6132 31.5314 50.3854 31.5314 51.1655C31.5314 51.9456 31.3759 52.7178 31.0742 53.4363C30.7723 54.1548 30.3303 54.8049 29.7744 55.3483C27.5095 57.5659 24.4749 58.8065 21.3158 58.8065C18.1567 58.8065 15.1221 57.5659 12.8572 55.3483C10.8851 53.4322 9.65393 50.8723 9.38362 48.1263C9.11331 45.3803 9.82147 42.627 11.3816 40.3583C11.8182 39.7268 12.3121 39.1375 12.8572 38.5981C15.115 36.3692 18.1538 35.1248 21.3158 35.1345V19.3306C15.7205 19.2752 10.3322 21.4589 6.33519 25.4019C2.33819 29.3448 0.059521 34.7243 0 40.3583C0.0595277 45.993 2.33789 51.3737 6.33462 55.3181C10.3313 59.2626 15.7197 61.4484 21.3158 61.3954C24.2203 61.4094 27.0973 60.8295 29.7726 59.6908C32.4479 58.5522 34.8658 56.8784 36.8797 54.771V40.3583H21.3158Z" fill="#898989"/>
</g>
<defs>
<clipPath id="clip0">
<rect width="125" height="62" fill="white" transform="translate(0 0.5)"/>
</clipPath>
</defs>
</svg>
